<svg width="33" height="33" viewBox="0 0 33 33" fill="none" xmlns="http://www.w3.org/2000/svg">
<rect x="0.0234375" y="0.4375" width="32.125" height="32.125" rx="4.01562" fill="#FFE0D2"/>
<path d="M25.1211 14.4922H7.05078M20.1016 6.46094V10.4766M12.0703 6.46094V10.4766M11.8695 26.5391H20.3023C21.9891 26.5391 22.8324 26.5391 23.4767 26.2108C24.0434 25.9221 24.5041 25.4613 24.7928 24.8946C25.1211 24.2504 25.1211 23.407 25.1211 21.7203V13.2875C25.1211 11.6008 25.1211 10.7574 24.7928 10.1132C24.5041 9.54649 24.0434 9.08575 23.4767 8.79701C22.8324 8.46875 21.9891 8.46875 20.3023 8.46875H11.8695C10.1828 8.46875 9.33945 8.46875 8.69521 8.79701C8.12852 9.08575 7.66778 9.54649 7.37904 10.1132C7.05078 10.7574 7.05078 11.6008 7.05078 13.2875V21.7203C7.05078 23.407 7.05078 24.2504 7.37904 24.8946C7.66778 25.4613 8.12852 25.9221 8.69521 26.2108C9.33945 26.5391 10.1828 26.5391 11.8695 26.5391Z" stroke="#E46125" stroke-width="2.00781" stroke-linecap="round" stroke-linejoin="round"/>
</svg>
